<?xml version="1.0" standalone="no"?>
<!DOCTYPE svg PUBLIC "-//W3C//DTD SVG 20010904//EN"
 "http://www.w3.org/TR/2001/REC-SVG-20010904/DTD/svg10.dtd">
<svg version="1.0" xmlns="http://www.w3.org/2000/svg"
 width="1024.000000pt" height="1024.000000pt" viewBox="0 0 1024.000000 1024.000000"
 preserveAspectRatio="xMidYMid meet">
<metadata>
Created by potrace 1.11, written by Peter Selinger 2001-2013
</metadata>
<g transform="translate(0.000000,1024.000000) scale(0.100000,-0.100000)"
fill="#000000" stroke="none">
<path d="M6140 7932 c-14 -2 -30 -10 -37 -18 -6 -8 -40 -47 -75 -87 -36 -40
-138 -155 -228 -257 -183 -208 -268 -305 -321 -364 -20 -23 -76 -86 -124 -141
-48 -55 -116 -131 -150 -170 -138 -157 -301 -342 -325 -369 -14 -16 -32 -37
-40 -46 -8 -8 -44 -49 -80 -90 -36 -41 -67 -77 -70 -80 -3 -3 -39 -43 -80 -90
-41 -47 -79 -90 -85 -96 -5 -6 -37 -42 -70 -80 -57 -64 -166 -189 -295 -334
-32 -36 -89 -100 -126 -144 -38 -43 -87 -98 -110 -123 l-41 -46 -1 1249 c0
687 -1 1256 -1 1264 -1 13 -66 15 -518 15 l-518 0 0 -2663 0 -2662 519 2 519
3 0 792 0 792 36 40 c48 53 343 361 512 534 l135 140 75 -104 c83 -113 294
-407 547 -759 89 -124 168 -234 176 -245 33 -45 604 -838 662 -920 24 -33 47
-64 52 -70 4 -5 39 -54 77 -107 l69 -98 584 0 584 0 -36 48 c-20 26 -75 101
-123 167 -48 66 -91 125 -96 130 -7 9 -90 123 -360 493 -45 63 -91 126 -103
140 -11 15 -236 322 -499 682 -264 360 -520 710 -569 778 -50 68 -100 136
-111 152 -35 50 -229 315 -235 320 -3 3 -13 16 -22 30 -12 20 -13 29 -4 42 10
13 104 123 131 152 6 6 35 40 65 76 30 36 57 67 60 70 5 5 239 276 389 450 73
85 171 198 186 214 6 6 48 56 95 111 47 55 87 102 90 105 3 3 32 37 65 75 32
39 66 77 75 86 8 9 26 29 39 45 34 40 135 158 141 164 7 7 69 78 125 145 28
33 57 66 65 75 8 9 35 40 60 70 25 30 47 57 51 60 3 3 92 105 198 228 176 204
189 222 164 222 -158 3 -1074 4 -1093 2z"/>
</g>
</svg>
