<?xml version="1.0" encoding="UTF-8" standalone="no"?>
<!-- Created with Inkscape (http://www.inkscape.org/) -->

<svg
   xmlns:dc="http://purl.org/dc/elements/1.1/"
   xmlns:cc="http://creativecommons.org/ns#"
   xmlns:rdf="http://www.w3.org/1999/02/22-rdf-syntax-ns#"
   xmlns:svg="http://www.w3.org/2000/svg"
   xmlns="http://www.w3.org/2000/svg"
   xmlns:sodipodi="http://sodipodi.sourceforge.net/DTD/sodipodi-0.dtd"
   xmlns:inkscape="http://www.inkscape.org/namespaces/inkscape"
   width="200mm"
   height="200mm"
   viewBox="0 0 200 200"
   version="1.1"
   id="svg8"
   inkscape:version="0.92.1 r15371"
   sodipodi:docname="logo.svg">
  <defs
     id="defs2" />
  <sodipodi:namedview
     id="base"
     pagecolor="#ffffff"
     bordercolor="#666666"
     borderopacity="1.0"
     inkscape:pageopacity="0.0"
     inkscape:pageshadow="2"
     inkscape:zoom="0.24748738"
     inkscape:cx="381.41497"
     inkscape:cy="-51.126211"
     inkscape:document-units="mm"
     inkscape:current-layer="layer2"
     showgrid="false"
     inkscape:window-width="958"
     inkscape:window-height="1008"
     inkscape:window-x="692"
     inkscape:window-y="71"
     inkscape:window-maximized="0"
     inkscape:measure-start="308.602,428.81"
     inkscape:measure-end="347.492,382.343"
     inkscape:pagecheckerboard="true" />
  <metadata
     id="metadata5">
    <rdf:RDF>
      <cc:Work
         rdf:about="">
        <dc:format>image/svg+xml</dc:format>
        <dc:type
           rdf:resource="http://purl.org/dc/dcmitype/StillImage" />
        <dc:title></dc:title>
      </cc:Work>
    </rdf:RDF>
  </metadata>
  <g
     inkscape:groupmode="layer"
     id="layer2"
     inkscape:label="Background">
    <g
       id="g5130"
       transform="matrix(3.3072917,0,0,3.3072917,228.78271,129.44085)">
      <g
         id="g5103"
         transform="matrix(1.2441133,-1.8661699,1.8661699,1.2441133,-38.939024,-8.9018002)">
        <!--arctan(-3/2)-->
        <g
           id="g5246" />
      </g>
    </g>
    <g
       id="g5619"
       transform="translate(-3.0238054,-11.529153)">
      <path
         transform="matrix(0.26458333,0,0,0.26458333,1.5271933e-6,1.0474515e-6)"
         id="path5386"
         d="m 637.45703,319.27539 a 168.21428,168.21428 0 0 1 15.4375,18.30469 c -0.57306,-0.79989 -1.08354,-1.58589 -1.66992,-2.38867 -2.65165,-3.63024 -5.08724,-6.71982 -7.31445,-9.31055 -2.22722,-2.59074 -4.24638,-4.68377 -6.06446,-6.31836 -0.14566,-0.13096 -0.24558,-0.16199 -0.38867,-0.28711 z"
         clip-path="none"
         style="fill:#595ee6;fill-opacity:1;stroke-width:28.0357132"
         inkscape:connector-curvature="0" />
      <path
         sodipodi:nodetypes="ccsccccsc"
         inkscape:connector-curvature="0"
         id="path5101-7"
         d="M 8.8344082,-5.2019312 C 6.9670747,-8.1151681 3.704763,-9.8497633 0.17646505,-9.8054243 c -2.86179525,0.03678 -5.21154595,2.3616888 -5.24832245,5.1928351 -0.036776,2.8311463 2.2533487,5.0964306 5.11514395,5.059654 C 1.6105603,0.4294578 3.1306209,1.1731431 4.0493216,2.31069 c 1.8385262,2.788718 1.0758135,5.5520337 -1.0017691,7.800421 -0.026162,0.02825 -0.052074,0.05262 -0.078222,0.08023 C 6.0724234,9.2055793 8.5694232,6.8541108 9.7201379,3.8339855 10.870853,0.81386026 10.543237,-2.528359 8.8344082,-5.2019312 Z"
         clip-path="none"
         style="fill:#595ee6;fill-opacity:1;stroke-width:0.85891318"
         transform="matrix(4.1146455,-6.1719682,6.1719682,4.1146455,99.999998,100)" />
      <path
         style="fill:#595ee6;fill-opacity:1;stroke-width:0.85891318"
         clip-path="none"
         d="m -10.968612,7.6045847 c 1.867334,2.9132373 5.129646,4.6478323 8.6579439,4.6034943 C 0.55112742,12.171298 2.9008778,9.8463897 2.9376542,7.0152433 2.9744305,4.184097 0.68430528,1.9188124 -2.1774899,1.9555891 -3.7447637,1.9731963 -5.2648242,1.229511 -6.1835249,0.09196391 -8.0220511,-2.6967538 -7.2593383,-5.4600694 -5.181756,-7.7084572 c 0.026162,-0.028251 0.052075,-0.052619 0.078222,-0.08023 -3.1030923,0.9857619 -5.600092,3.3372305 -6.750807,6.3573559 -1.150714,3.020126 -0.823099,6.3623445 0.885729,9.035916 z"
         id="path5603"
         inkscape:connector-curvature="0"
         sodipodi:nodetypes="ccsccccsc"
         transform="matrix(4.1146455,-6.1719682,6.1719682,4.1146455,99.999998,100)" />
      <g
         id="g5417"
         transform="matrix(3.3072917,0,0,3.3072917,228.78271,129.44085)">
        <g
           id="g5415"
           transform="matrix(1.2441133,-1.8661699,1.8661699,1.2441133,-38.939024,-8.9018002)">
          <!--arctan(-3/2)-->
          <g
             id="g5413">
            <path
               style="fill:#595ee6;fill-opacity:1;stroke-width:28.0357132"
               clip-path="none"
               d="m 637.45703,319.27539 a 168.21428,168.21428 0 0 1 15.4375,18.30469 c -0.57306,-0.79989 -1.08354,-1.58589 -1.66992,-2.38867 -2.65165,-3.63024 -5.08724,-6.71982 -7.31445,-9.31055 -2.22722,-2.59074 -4.24638,-4.68377 -6.06446,-6.31836 -0.14566,-0.13096 -0.24558,-0.16199 -0.38867,-0.28711 z"
               id="path5409"
               transform="matrix(0.01978549,0.02967823,-0.02967823,0.01978549,3.7389891,-18.694946)"
               inkscape:connector-curvature="0" />
          </g>
        </g>
      </g>
      <g
         transform="matrix(3.3072917,0,0,-3.3072917,228.78271,-11.886456)"
         id="g5543">
        <g
           transform="matrix(1.2441133,-1.8661699,1.8661699,1.2441133,-38.939024,-8.9018002)"
           id="g5541">
          <!--arctan(-3/2)-->
          <g
             id="g5539">
            <path
               inkscape:connector-curvature="0"
               transform="matrix(0.01978549,0.02967823,-0.02967823,0.01978549,3.7389891,-18.694946)"
               id="path5535"
               d="m 637.45703,319.27539 a 168.21428,168.21428 0 0 1 15.4375,18.30469 c -0.57306,-0.79989 -1.08354,-1.58589 -1.66992,-2.38867 -2.65165,-3.63024 -5.08724,-6.71982 -7.31445,-9.31055 -2.22722,-2.59074 -4.24638,-4.68377 -6.06446,-6.31836 -0.14566,-0.13096 -0.24558,-0.16199 -0.38867,-0.28711 z"
               clip-path="none"
               style="fill:#595ee6;fill-opacity:1;stroke-width:28.0357132" />
          </g>
        </g>
      </g>
    </g>
  </g>
  <g
     inkscape:groupmode="layer"
     id="layer4"
     inkscape:label="Background 1" />
  <g
     inkscape:label="Layer 1"
     inkscape:groupmode="layer"
     id="layer1"
     transform="translate(0,-97)">
    <g
       id="g4536"
       transform="matrix(7.8731461,0,0,7.8731461,-19.614301,134.01162)">
      <g
         id="g4509"
         transform="rotate(-56.309933,15.070797,-10.1937)">
        <!--arctan(-3/2)-->
        <g
           id="b2" />
        <g
           id="g4571" />
      </g>
    </g>
  </g>
  <g
     inkscape:groupmode="layer"
     id="layer3"
     inkscape:label="Layer 2" />
</svg>
