<?xml version="1.0" encoding="UTF-8" standalone="no"?>
<!-- Created with Inkscape (http://www.inkscape.org/) -->

<svg
   xmlns:dc="http://purl.org/dc/elements/1.1/"
   xmlns:cc="http://creativecommons.org/ns#"
   xmlns:rdf="http://www.w3.org/1999/02/22-rdf-syntax-ns#"
   xmlns:svg="http://www.w3.org/2000/svg"
   xmlns="http://www.w3.org/2000/svg"
   xmlns:sodipodi="http://sodipodi.sourceforge.net/DTD/sodipodi-0.dtd"
   xmlns:inkscape="http://www.inkscape.org/namespaces/inkscape"
   width="200mm"
   height="200mm"
   viewBox="0 0 200 200"
   version="1.1"
   id="svg8"
   inkscape:version="0.92.1 r15371"
   sodipodi:docname="logo.svg">
  <defs
     id="defs2" />
  <sodipodi:namedview
     id="base"
     pagecolor="#ffffff"
     bordercolor="#666666"
     borderopacity="1.0"
     inkscape:pageopacity="0.0"
     inkscape:pageshadow="2"
     inkscape:zoom="0.49497475"
     inkscape:cx="245.70579"
     inkscape:cy="438.97006"
     inkscape:document-units="mm"
     inkscape:current-layer="layer2"
     showgrid="false"
     inkscape:window-width="958"
     inkscape:window-height="1008"
     inkscape:window-x="-7"
     inkscape:window-y="0"
     inkscape:window-maximized="0" />
  <metadata
     id="metadata5">
    <rdf:RDF>
      <cc:Work
         rdf:about="">
        <dc:format>image/svg+xml</dc:format>
        <dc:type
           rdf:resource="http://purl.org/dc/dcmitype/StillImage" />
        <dc:title></dc:title>
      </cc:Work>
    </rdf:RDF>
  </metadata>
  <g
     inkscape:groupmode="layer"
     id="layer2"
     inkscape:label="Background">
    <circle
       transform="rotate(-56.309934)"
       style="fill:#595ee6;fill-opacity:1;stroke-width:7.87314606"
       cy="138.89743"
       cx="-27.586758"
       r="94.477753"
       id="circle4505" />
  </g>
  <g
     inkscape:groupmode="layer"
     id="layer4"
     inkscape:label="Background 1" />
  <g
     inkscape:label="Layer 1"
     inkscape:groupmode="layer"
     id="layer1"
     transform="translate(0,-97)">
    <g
       id="g4536"
       transform="matrix(7.8731461,0,0,7.8731461,-19.614301,134.01162)">
      <g
         id="g4509"
         transform="rotate(-56.309933,15.070797,-10.1937)">
        <!--arctan(-3/2)-->
        <g
           id="b2" />
        <g
           id="g4571" />
      </g>
    </g>
  </g>
  <g
     inkscape:groupmode="layer"
     id="layer3"
     inkscape:label="Layer 2">
    <g
       aria-label="K"
       style="font-style:normal;font-variant:normal;font-weight:normal;font-stretch:normal;font-size:49.41057587px;line-height:1.25;font-family:'Nunito Sans';-inkscape-font-specification:'Nunito Sans';letter-spacing:0px;word-spacing:0px;fill:#f7f7f7;fill-opacity:1;stroke:none;stroke-width:0.51469344"
       id="text4487"
       transform="translate(2.1381562)">
      <path
         d="m 46.809456,49.158593 q 4.474661,0 6.171947,2.160181 1.697285,2.160181 1.697285,6.171946 0,3.703168 0,9.412218 0.154298,5.70905 0.308597,12.65249 v 12.343893 q 10.646607,-11.880997 19.133033,-21.447514 8.332128,-9.412218 16.509957,-18.36154 2.777376,-3.240271 5.246154,-3.085973 2.468778,0.154299 4.937561,2.160181 2.00588,1.697286 2.00588,4.011765 0.1543,2.31448 -2.77738,5.709051 -6.326242,7.406335 -15.275565,17.435748 -8.949321,10.029413 -20.521721,21.447513 11.880997,11.418108 21.293215,21.601818 9.566517,10.18371 16.047061,17.74434 2.93167,3.54887 2.93167,5.55475 0,1.85159 -2.00588,3.85747 -2.16018,2.31448 -4.783257,2.46878 -2.623077,0.1543 -5.554752,-3.08598 -8.486426,-8.79502 -17.281449,-18.51583 -8.949323,-9.56652 -19.904527,-21.44751 v 1.38868 q 0,7.71494 -0.308597,14.81268 -0.154299,7.09773 -0.462896,12.80678 -0.462897,3.70317 -0.771494,6.32625 -0.154298,2.62307 -0.771493,4.16606 -0.771493,1.69729 -2.31448,2.31448 -1.388687,0.6172 -4.320362,0.6172 -2.005883,0 -4.011765,-1.23439 -2.005883,-1.38869 -2.005883,-5.09186 0,-4.78325 -0.154298,-11.4181 -0.154299,-6.63484 -0.154299,-14.34977 -0.154298,-7.71494 -0.154298,-16.04707 0,-8.332127 0,-16.355657 0,-7.869232 0,-14.96697 0.154298,-7.252036 0.462895,-12.961087 0.154299,-4.166064 1.851584,-6.480543 1.851584,-2.31448 4.937557,-2.31448 z"
         style="font-style:normal;font-variant:normal;font-weight:bold;font-stretch:normal;font-size:176.3888855px;font-family:THEKwang;-inkscape-font-specification:'THEKwang Bold';fill:#f7f7f7;fill-opacity:1;stroke-width:0.46104097"
         id="path4521"
         inkscape:connector-curvature="0" />
    </g>
    <g
       aria-label="ㅎ"
       style="font-style:normal;font-variant:normal;font-weight:normal;font-stretch:normal;font-size:119.94444275px;line-height:1.25;font-family:'Leckerli One';-inkscape-font-specification:'Leckerli One';letter-spacing:0px;word-spacing:0px;fill:#f7f7f7;fill-opacity:1;stroke:none;stroke-width:0.26458332"
       id="text4487-4"
       transform="matrix(0.80859309,0,0,0.80859309,18.508032,19.140694)">
      <path
         d="m 153.5123,109.25352 q 0,3.514 -3.98253,7.96506 -3.98253,4.45106 -14.17312,9.25353 -0.81993,-0.7028 -2.4598,-2.69407 -1.52273,-1.99126 -3.27973,-4.56819 -1.757,-2.57694 -3.1626,-5.271 -1.4056,-2.8112 -1.757,-5.15386 -0.3514,-2.4598 0.3514,-4.2168 0.7028,-1.87413 1.87414,-3.1626 1.17133,-1.28846 2.69406,-1.756996 1.63987,-0.468533 3.04547,-0.117133 1.87413,0.585669 3.16259,2.811199 1.28847,2.22553 2.1084,4.80246 0.93707,3.1626 1.4056,6.79373 1.63987,-3.514 3.1626,-6.09093 1.28846,-2.34266 2.92833,-3.98253 1.63986,-1.757 3.04546,-1.17133 2.1084,0.58566 3.514,2.34266 1.52273,1.757 1.52273,4.2168 z M 139.57345,85.944005 q -6.55946,0 -11.36193,2.459798 -4.68533,2.342665 -7.84793,6.208062 -3.16259,3.98253 -4.68533,9.019255 -1.52273,4.9196 -1.52273,10.07346 0,5.9738 1.87413,10.42486 1.99127,4.45107 5.50527,7.26226 3.39686,2.92833 7.96506,4.33393 4.68533,1.4056 9.95632,1.4056 5.03673,0 9.37066,-1.99126 4.45107,-1.99127 7.7308,-5.6224 3.27973,-3.514 5.15386,-8.19933 1.87413,-4.80246 1.87413,-10.19059 0,-3.86539 -1.52273,-8.19932 -1.4056,-4.451068 -4.33393,-8.316465 -3.04546,-3.748264 -7.61366,-6.208062 -4.45106,-2.459798 -10.54199,-2.459798 z M 106.54187,71.185216 q 1.4056,-0.117134 6.44233,-0.3514 5.15386,-0.3514 11.94759,-0.7028 3.1626,-0.117133 6.55946,-0.351399 v -0.3514 q 0.11714,-4.919596 0.7028,-9.839193 0.3514,-3.162597 1.757,-4.802463 1.4056,-1.756998 3.8654,-1.756998 3.74826,0 5.03673,1.991265 1.4056,1.991265 1.757,5.505262 0.23426,3.865397 0,8.082194 -0.11714,0.234267 -0.11714,0.468533 4.9196,-0.234266 9.4878,-0.468533 6.67659,-0.234266 11.47905,-0.468533 4.80247,-0.234266 5.73953,-0.234266 2.4598,0 3.63113,1.171332 1.17134,1.171333 1.4056,2.811198 0.11714,0.937066 0.11714,1.874132 0,0.819933 -0.3514,1.639865 -0.3514,0.937066 -1.28847,1.639866 -0.81993,0.702799 -2.69406,0.937066 -1.4056,0.234266 -6.44233,0.585666 -5.03673,0.3514 -11.83046,0.7028 -1.99127,0.117133 -4.09966,0.234266 2.45979,0.7028 4.80246,1.639865 6.44233,3.045465 10.89339,7.847928 4.33393,4.802463 6.55946,10.776258 2.22553,5.973793 2.22553,12.181853 0,7.61367 -2.69406,14.05599 -2.69407,6.44233 -7.3794,11.01053 -4.80246,4.68533 -11.36192,7.37939 -6.55946,2.57694 -14.17312,2.57694 -8.0822,-0.11714 -14.75879,-2.22554 -6.6766,-2.10839 -11.36193,-6.20806 -4.80246,-4.09966 -7.49652,-10.19059 -2.57693,-6.09093 -2.57693,-14.05599 0,-6.44233 2.10839,-12.88466 2.22554,-6.442326 6.79373,-11.596188 4.5682,-5.153863 11.71333,-8.433594 0.7028,-0.234267 1.40559,-0.585666 -6.44232,0.351399 -11.12765,0.585666 -5.03673,0.234266 -6.55946,0.3514 -3.63114,0.234266 -5.271,-0.585667 -1.639864,-0.819932 -1.991264,-3.63113 -0.7028,-5.622396 7.145124,-6.325195 z"
         style="font-style:normal;font-variant:normal;font-weight:bold;font-stretch:normal;font-size:119.94444275px;font-family:THEKwang;-inkscape-font-specification:'THEKwang Bold';fill:#f7f7f7;fill-opacity:1;stroke-width:0.26458332"
         id="path4518"
         inkscape:connector-curvature="0" />
    </g>
    <ellipse
       transform="matrix(0.54143916,-0.84073993,0.82303099,0.56799646,0,0)"
       style="fill:#595eff;fill-opacity:1;stroke-width:1.36633396"
       cy="168.72005"
       cx="-17.233854"
       id="circle4505-6"
       rx="16.505388"
       ry="16.287354" />
  </g>
</svg>
