<svg version="1" xmlns="http://www.w3.org/2000/svg" width="1365.333" height="1365.333" viewBox="0 0 1024.000000 1024.000000"><path d="M694 212.5V299H524v91h430v-91H784V126h-90v86.5zM71.7 140.2c1 40.1 2.4 257.2 2.4 365.4 0 107.1-1.5 346-2.4 382.5l-.3 11.6 90 .6c109 .8 343.6.9 343.6.1 0-.3-51.7-86.7-115-192C326.8 603.1 275 516.5 275 516s52.4-88 116.5-194.5S508 127.7 508 127.5c0-.3-98.2-.5-218.3-.5H71.3l.4 13.2zM709.5 471.5c-14.7 2.1-35.6 7.6-49.1 13-98.5 39-153.6 142-131.7 246 17.2 82.3 82.7 147.7 165.5 165.4 30.2 6.4 64.6 6 95.3-1.1 77.1-17.8 139.3-79.4 158.9-157.3 4.6-18.2 6-30.4 6-52.5 0-21.9-1.3-33.6-5.9-52-15.4-61.4-55.9-112.2-112-140.4-19.2-9.6-38.7-16.1-61-20.2-12.5-2.3-52.3-2.8-66-.9z"/></svg>